<svg xmlns="http://www.w3.org/2000/svg" xmlns:xlink="http://www.w3.org/1999/xlink" width="664" height="338" viewBox="0 0 664 338"><path fill="none" stroke="#000" stroke-linecap="round" stroke-width="17.325" d="M 56.543,250.488 C 59.664,248.731 59.375,248.414 62.207,246.340"/><path fill="none" stroke="#000" stroke-linecap="round" stroke-width="17.325" d="M 62.207,246.340 C 65.535,243.081 65.560,243.188 68.336,239.402"/><path fill="none" stroke="#000" stroke-linecap="round" stroke-width="17.325" d="M 68.336,239.402 C 75.207,230.123 75.320,230.228 81.777,220.633"/><path fill="none" stroke="#000" stroke-linecap="round" stroke-width="17.325" d="M 81.777,220.633 C 93.468,202.966 93.832,203.220 105.586,185.598"/><path fill="none" stroke="#000" stroke-linecap="round" stroke-width="17.325" d="M 105.586,185.598 C 120.075,163.265 120.775,163.828 136.391,142.355"/><path fill="none" stroke="#000" stroke-linecap="round" stroke-width="17.325" d="M 136.391,142.355 C 153.563,120.470 153.444,120.501 172.324,100.070"/><path fill="none" stroke="#000" stroke-linecap="round" stroke-width="17.325" d="M 172.324,100.070 C 185.878,86.035 185.489,85.757 200.242,72.930"/><path fill="none" stroke="#000" stroke-linecap="round" stroke-width="17.325" d="M 200.242,72.930 C 209.890,63.831 206.124,67.564 212.816,63.129"/><path fill="none" stroke="#000" stroke-linecap="round" stroke-width="17.325" d="M 212.816,63.129 C 211.573,67.304 214.370,62.756 209.203,70.781"/><path fill="none" stroke="#000" stroke-linecap="round" stroke-width="17.325" d="M 209.203,70.781 C 204.047,78.974 203.864,78.618 197.398,85.758"/><path fill="none" stroke="#000" stroke-linecap="round" stroke-width="17.325" d="M 197.398,85.758 C 187.402,96.949 187.124,96.241 175.355,105.316"/><path fill="none" stroke="#000" stroke-linecap="round" stroke-width="17.325" d="M 175.355,105.316 C 156.585,118.736 156.697,118.277 135.988,128.414"/><path fill="none" stroke="#000" stroke-linecap="round" stroke-width="17.325" d="M 135.988,128.414 C 104.926,141.826 105.497,142.740 73.180,153.324"/><path fill="none" stroke="#000" stroke-linecap="round" stroke-width="17.325" d="M 73.180,153.324 C 47.210,160.542 47.950,162.462 22.035,169.688"/><path fill="none" stroke="#000" stroke-linecap="round" stroke-width="17.325" d="M 22.035,169.688 C 3.829,177.384 14.117,172.564 6.992,177.367"/><path fill="none" stroke="#000" stroke-linecap="round" stroke-width="17.325" d="M 6.992,177.367 C 24.256,173.088 13.651,177.331 41.680,169.582"/><path fill="none" stroke="#000" stroke-linecap="round" stroke-width="17.325" d="M 41.680,169.582 C 73.797,163.199 73.772,163.124 106.023,157.438"/><path fill="none" stroke="#000" stroke-linecap="round" stroke-width="17.325" d="M 106.023,157.438 C 130.257,152.916 130.273,153.102 154.633,149.387"/><path fill="none" stroke="#000" stroke-linecap="round" stroke-width="17.325" d="M 154.633,149.387 C 176.872,145.466 176.843,146.171 199.195,143.949"/><path fill="none" stroke="#000" stroke-linecap="round" stroke-width="17.325" d="M 199.195,143.949 C 209.658,143.423 209.292,143.263 219.473,144.980"/><path fill="none" stroke="#000" stroke-linecap="round" stroke-width="17.325" d="M 219.473,144.980 C 223.418,145.711 222.187,145.411 224.254,147.926"/><path fill="none" stroke="#000" stroke-linecap="round" stroke-width="17.325" d="M 224.254,147.926 C 224.557,151.869 225.343,150.812 223.324,155.184"/><path fill="none" stroke="#000" stroke-linecap="round" stroke-width="17.325" d="M 144.875,229.602 C 146.137,225.343 146.121,225.338 147.367,221.074"/><path fill="none" stroke="#000" stroke-linecap="round" stroke-width="17.325" d="M 147.367,221.074 C 147.849,218.584 148.063,218.659 148.727,216.234"/><path fill="none" stroke="#000" stroke-linecap="round" stroke-width="17.325" d="M 148.727,216.234 C 150.039,212.703 150.035,212.730 151.738,209.367"/><path fill="none" stroke="#000" stroke-linecap="round" stroke-width="17.325" d="M 151.738,209.367 C 153.829,205.692 153.654,205.605 155.957,202.039"/><path fill="none" stroke="#000" stroke-linecap="round" stroke-width="17.325" d="M 155.957,202.039 C 157.917,198.754 157.882,198.733 159.844,195.449"/><path fill="none" stroke="#000" stroke-linecap="round" stroke-width="17.325" d="M 159.844,195.449 C 161.523,192.136 161.706,192.256 163.535,189.043"/><path fill="none" stroke="#000" stroke-linecap="round" stroke-width="17.325" d="M 163.535,189.043 C 164.848,184.919 165.181,186.513 167.160,184.203"/><path fill="none" stroke="#000" stroke-linecap="round" stroke-width="17.325" d="M 167.160,184.203 C 170.586,184.371 169.380,183.516 172.598,186.238"/><path fill="none" stroke="#000" stroke-linecap="round" stroke-width="17.325" d="M 172.598,186.238 C 175.450,189.355 175.344,188.787 176.676,193.035"/><path fill="none" stroke="#000" stroke-linecap="round" stroke-width="17.325" d="M 176.676,193.035 C 178.986,198.007 178.054,197.175 177.805,201.879"/><path fill="none" stroke="#000" stroke-linecap="round" stroke-width="17.325" d="M 177.805,201.879 C 175.440,205.868 176.669,205.602 172.043,208.227"/><path fill="none" stroke="#000" stroke-linecap="round" stroke-width="17.325" d="M 172.043,208.227 C 169.115,209.546 169.563,209.949 166.051,210.039"/><path fill="none" stroke="#000" stroke-linecap="round" stroke-width="17.325" d="M 166.051,210.039 C 162.698,210.392 162.777,210.566 159.367,210.266"/><path fill="none" stroke="#000" stroke-linecap="round" stroke-width="17.325" d="M 159.367,210.266 C 153.660,209.729 156.591,210.160 153.836,209.574"/><path fill="none" stroke="#000" stroke-linecap="round" stroke-width="17.325" d="M 153.836,209.574 C 157.154,208.821 154.034,209.399 160.113,209.605"/><path fill="none" stroke="#000" stroke-linecap="round" stroke-width="17.325" d="M 160.113,209.605 C 163.842,211.276 163.959,210.625 167.445,213.184"/><path fill="none" stroke="#000" stroke-linecap="round" stroke-width="17.325" d="M 167.445,213.184 C 171.703,215.073 171.500,215.330 175.430,217.715"/><path fill="none" stroke="#000" stroke-linecap="round" stroke-width="17.325" d="M 188.785,229.660 C 192.003,226.091 191.846,225.973 194.906,222.285"/><path fill="none" stroke="#000" stroke-linecap="round" stroke-width="17.325" d="M 194.906,222.285 C 197.110,219.390 197.102,219.407 198.984,216.293"/><path fill="none" stroke="#000" stroke-linecap="round" stroke-width="17.325" d="M 198.984,216.293 C 201.324,211.705 201.643,211.900 203.973,207.305"/><path fill="none" stroke="#000" stroke-linecap="round" stroke-width="17.325" d="M 203.973,207.305 C 205.975,201.188 205.971,203.984 208.277,200.852"/><path fill="none" stroke="#000" stroke-linecap="round" stroke-width="17.325" d="M 208.277,200.852 C 211.012,203.145 210.280,200.559 212.582,206.047"/><path fill="none" stroke="#000" stroke-linecap="round" stroke-width="17.325" d="M 212.582,206.047 C 213.365,208.897 213.958,208.590 214.168,211.742"/><path fill="none" stroke="#000" stroke-linecap="round" stroke-width="17.325" d="M 214.168,211.742 C 215.200,215.002 215.095,215.028 216.043,218.309"/><path fill="none" stroke="#000" stroke-linecap="round" stroke-width="17.325" d="M 216.043,218.309 C 216.832,220.897 216.704,220.902 217.176,223.543"/><path fill="none" stroke="#000" stroke-linecap="round" stroke-width="17.325" d="M 189.746,220.637 C 192.356,221.142 192.354,220.863 194.961,221.090"/><path fill="none" stroke="#000" stroke-linecap="round" stroke-width="17.325" d="M 194.961,221.090 C 198.263,220.733 198.266,221.023 201.566,220.398"/><path fill="none" stroke="#000" stroke-linecap="round" stroke-width="17.325" d="M 201.566,220.398 C 205.079,219.996 205.083,220.042 208.602,219.707"/><path fill="none" stroke="#000" stroke-linecap="round" stroke-width="17.325" d="M 208.602,219.707 C 212.125,219.545 212.114,219.419 215.637,219.246"/><path fill="none" stroke="#000" stroke-linecap="round" stroke-width="17.325" d="M 215.637,219.246 C 219.248,218.904 219.250,218.938 222.852,218.492"/><path fill="none" stroke="#000" stroke-linecap="round" stroke-width="17.325" d="M 237.016,226.977 C 237.687,223.311 237.695,223.313 238.375,219.648"/><path fill="none" stroke="#000" stroke-linecap="round" stroke-width="17.325" d="M 238.375,219.648 C 238.759,216.630 238.933,216.674 239.508,213.703"/><path fill="none" stroke="#000" stroke-linecap="round" stroke-width="17.325" d="M 239.508,213.703 C 240.390,210.427 240.345,210.431 241.547,207.250"/><path fill="none" stroke="#000" stroke-linecap="round" stroke-width="17.325" d="M 241.547,207.250 C 242.587,204.148 242.656,204.204 244.039,201.258"/><path fill="none" stroke="#000" stroke-linecap="round" stroke-width="17.325" d="M 244.039,201.258 C 245.031,197.112 245.192,198.962 246.758,196.879"/><path fill="none" stroke="#000" stroke-linecap="round" stroke-width="17.325" d="M 246.758,196.879 C 249.443,198.192 248.656,196.622 251.289,200.277"/><path fill="none" stroke="#000" stroke-linecap="round" stroke-width="17.325" d="M 251.289,200.277 C 253.242,203.156 253.552,202.833 254.977,206.160"/><path fill="none" stroke="#000" stroke-linecap="round" stroke-width="17.325" d="M 254.977,206.160 C 256.522,209.448 256.785,209.292 258.375,212.551"/><path fill="none" stroke="#000" stroke-linecap="round" stroke-width="17.325" d="M 258.375,212.551 C 259.944,217.571 259.923,215.143 261.777,217.551"/><path fill="none" stroke="#000" stroke-linecap="round" stroke-width="17.325" d="M 261.777,217.551 C 263.967,215.039 263.797,217.528 266.082,212.465"/><path fill="none" stroke="#000" stroke-linecap="round" stroke-width="17.325" d="M 266.082,212.465 C 270.453,205.996 270.960,206.527 275.762,200.527"/><path fill="none" stroke="#000" stroke-linecap="round" stroke-width="17.325" d="M 275.762,200.527 C 278.657,197.997 278.373,197.838 281.922,196.148"/><path fill="none" stroke="#000" stroke-linecap="round" stroke-width="17.325" d="M 281.922,196.148 C 284.469,194.260 284.356,194.770 287.160,194.074"/><path fill="none" stroke="#000" stroke-linecap="round" stroke-width="17.325" d="M 287.160,194.074 C 291.212,193.555 290.132,193.869 293.246,195.367"/><path fill="none" stroke="#000" stroke-linecap="round" stroke-width="17.325" d="M 293.246,195.367 C 294.551,198.385 295.387,197.274 295.512,201.512"/><path fill="none" stroke="#000" stroke-linecap="round" stroke-width="17.325" d="M 295.512,201.512 C 296.766,205.612 296.766,205.596 297.676,209.789"/><path fill="none" stroke="#000" stroke-linecap="round" stroke-width="17.325" d="M 297.676,209.789 C 298.632,214.658 298.731,214.632 299.441,219.551"/><path fill="none" stroke="#000" stroke-linecap="round" stroke-width="17.325" d="M 299.441,219.551 C 299.690,222.786 299.968,222.732 300.348,225.938"/><path fill="none" stroke="#000" stroke-linecap="round" stroke-width="17.325" d="M 441.953,83.746 C 434.678,87.268 434.656,87.223 427.359,90.699"/><path fill="none" stroke="#000" stroke-linecap="round" stroke-width="17.325" d="M 427.359,90.699 C 420.247,93.935 420.285,94.016 413.168,97.242"/><path fill="none" stroke="#000" stroke-linecap="round" stroke-width="17.325" d="M 413.168,97.242 C 405.014,100.801 405.118,101.003 397.102,104.836"/><path fill="none" stroke="#000" stroke-linecap="round" stroke-width="17.325" d="M 397.102,104.836 C 387.811,108.838 388.227,109.362 379.594,114.363"/><path fill="none" stroke="#000" stroke-linecap="round" stroke-width="17.325" d="M 379.594,114.363 C 373.949,118.375 374.000,118.125 369.480,123.410"/><path fill="none" stroke="#000" stroke-linecap="round" stroke-width="17.325" d="M 369.480,123.410 C 365.311,127.837 365.652,127.724 363.000,133.063"/><path fill="none" stroke="#000" stroke-linecap="round" stroke-width="17.325" d="M 363.000,133.063 C 360.642,138.164 360.930,137.745 360.719,143.227"/><path fill="none" stroke="#000" stroke-linecap="round" stroke-width="17.325" d="M 360.719,143.227 C 360.556,149.013 360.795,148.248 363.305,153.230"/><path fill="none" stroke="#000" stroke-linecap="round" stroke-width="17.325" d="M 363.305,153.230 C 369.714,161.746 368.892,161.804 377.391,168.809"/><path fill="none" stroke="#000" stroke-linecap="round" stroke-width="17.325" d="M 377.391,168.809 C 382.799,172.757 382.279,173.306 388.434,176.352"/><path fill="none" stroke="#000" stroke-linecap="round" stroke-width="17.325" d="M 388.434,176.352 C 396.007,179.175 394.672,180.331 401.137,183.957"/><path fill="none" stroke="#000" stroke-linecap="round" stroke-width="17.325" d="M 401.137,183.957 C 404.630,187.690 403.372,186.041 403.164,190.082"/><path fill="none" stroke="#000" stroke-linecap="round" stroke-width="17.325" d="M 403.164,190.082 C 397.345,196.254 399.354,196.298 390.586,201.172"/><path fill="none" stroke="#000" stroke-linecap="round" stroke-width="17.325" d="M 390.586,201.172 C 380.368,208.066 380.660,208.394 369.793,214.363"/><path fill="none" stroke="#000" stroke-linecap="round" stroke-width="17.325" d="M 369.793,214.363 C 356.083,221.401 356.597,222.222 343.043,229.484"/><path fill="none" stroke="#000" stroke-linecap="round" stroke-width="17.325" d="M 343.043,229.484 C 335.760,234.427 335.585,234.108 328.797,239.777"/><path fill="none" stroke="#000" stroke-linecap="round" stroke-width="17.325" d="M 419.043,201.008 C 419.043,204.070 419.043,204.070 419.043,207.133"/><path fill="none" stroke="#000" stroke-linecap="round" stroke-width="17.325" d="M 419.043,207.133 C 419.043,209.979 419.043,209.979 419.043,212.824"/><path fill="none" stroke="#000" stroke-linecap="round" stroke-width="17.325" d="M 419.043,212.824 C 419.188,215.565 419.043,215.559 419.043,218.293"/><path fill="none" stroke="#000" stroke-linecap="round" stroke-width="17.325" d="M 421.523,213.090 C 424.586,213.199 424.582,213.090 427.641,213.090"/><path fill="none" stroke="#000" stroke-linecap="round" stroke-width="17.325" d="M 427.641,213.090 C 431.051,212.979 431.043,212.968 434.438,212.629"/><path fill="none" stroke="#000" stroke-linecap="round" stroke-width="17.325" d="M 441.887,199.723 C 442.908,202.164 442.680,202.215 443.473,204.707"/><path fill="none" stroke="#000" stroke-linecap="round" stroke-width="17.325" d="M 443.473,204.707 C 443.867,207.312 444.041,207.268 444.152,209.930"/><path fill="none" stroke="#000" stroke-linecap="round" stroke-width="17.325" d="M 462.957,197.063 C 466.924,197.167 466.924,197.176 470.891,197.289"/><path fill="none" stroke="#000" stroke-linecap="round" stroke-width="17.325" d="M 461.715,204.766 C 461.511,207.533 461.826,207.484 461.938,210.203"/><path fill="none" stroke="#000" stroke-linecap="round" stroke-width="17.325" d="M 461.938,210.203 C 462.631,213.179 462.415,213.197 463.523,216.094"/><path fill="none" stroke="#000" stroke-linecap="round" stroke-width="17.325" d="M 463.523,216.094 C 464.393,218.712 464.330,218.730 465.336,221.305"/><path fill="none" stroke="#000" stroke-linecap="round" stroke-width="17.325" d="M 467.730,225.762 C 472.025,224.541 472.059,224.725 476.387,223.688"/><path fill="none" stroke="#000" stroke-linecap="round" stroke-width="17.325" d="M 476.387,223.688 C 479.112,223.142 479.092,223.158 481.863,222.996"/><path fill="none" stroke="#000" stroke-linecap="round" stroke-width="17.325" d="M 481.863,222.996 C 485.647,222.710 485.612,222.797 489.387,222.996"/><path fill="none" stroke="#000" stroke-linecap="round" stroke-width="17.325" d="M 502.543,202.680 C 503.758,205.140 503.676,205.174 504.809,207.668"/><path fill="none" stroke="#000" stroke-linecap="round" stroke-width="17.325" d="M 504.809,207.668 C 505.589,210.809 506.023,210.591 507.074,213.582"/><path fill="none" stroke="#000" stroke-linecap="round" stroke-width="17.325" d="M 507.074,213.582 C 508.840,219.739 508.874,216.942 511.379,219.934"/><path fill="none" stroke="#000" stroke-linecap="round" stroke-width="17.325" d="M 511.379,219.934 C 515.068,217.609 514.164,220.147 517.723,214.398"/><path fill="none" stroke="#000" stroke-linecap="round" stroke-width="17.325" d="M 517.723,214.398 C 520.852,210.056 521.074,210.347 523.391,205.410"/><path fill="none" stroke="#000" stroke-linecap="round" stroke-width="17.325" d="M 538.121,228.898 C 539.430,226.043 539.367,226.018 540.613,223.137"/><path fill="none" stroke="#000" stroke-linecap="round" stroke-width="17.325" d="M 540.613,223.137 C 542.732,217.473 542.893,217.539 545.047,211.891"/><path fill="none" stroke="#000" stroke-linecap="round" stroke-width="17.325" d="M 545.047,211.891 C 546.420,207.794 546.679,207.955 548.508,204.102"/><path fill="none" stroke="#000" stroke-linecap="round" stroke-width="17.325" d="M 548.508,204.102 C 550.685,197.780 550.642,200.327 553.492,196.957"/><path fill="none" stroke="#000" stroke-linecap="round" stroke-width="17.325" d="M 553.492,196.957 C 556.204,198.828 555.556,196.352 558.250,201.246"/><path fill="none" stroke="#000" stroke-linecap="round" stroke-width="17.325" d="M 558.250,201.246 C 559.588,203.533 559.942,203.246 560.969,205.793"/><path fill="none" stroke="#000" stroke-linecap="round" stroke-width="17.325" d="M 560.969,205.793 C 562.652,208.541 562.648,208.542 564.371,211.266"/><path fill="none" stroke="#000" stroke-linecap="round" stroke-width="17.325" d="M 564.371,211.266 C 566.480,214.415 566.392,214.468 568.449,217.648"/><path fill="none" stroke="#000" stroke-linecap="round" stroke-width="17.325" d="M 568.449,217.648 C 569.748,220.075 569.879,219.997 571.168,222.430"/><path fill="none" stroke="#000" stroke-linecap="round" stroke-width="17.325" d="M 522.922,218.523 C 529.231,218.297 529.180,217.947 535.438,217.371"/><path fill="none" stroke="#000" stroke-linecap="round" stroke-width="17.325" d="M 535.438,217.371 C 542.395,215.861 542.467,216.322 549.395,214.574"/><path fill="none" stroke="#000" stroke-linecap="round" stroke-width="17.325" d="M 549.395,214.574 C 556.221,213.191 556.231,213.318 563.109,212.285"/></svg>