<svg xmlns="http://www.w3.org/2000/svg" width="312" height="206" fill="none" viewBox="0 0 312 206"><path stroke="#000" stroke-linecap="round" stroke-width="17.325" d="M58.543 196.488c3.121-1.757 2.832-2.074 5.664-4.148m0 0c3.328-3.259 3.353-3.152 6.129-6.938m0 0c6.871-9.279 6.984-9.174 13.441-18.769m0 0c11.691-17.667 12.055-17.413 23.809-35.035m0 0c14.489-22.333 15.189-21.77 30.805-43.243m0 0c17.172-21.885 17.053-21.854 35.933-42.285m0 0c13.554-14.035 13.165-14.313 27.918-27.14m0 0c9.648-9.099 5.882-5.366 12.574-9.801m0 0c-1.243 4.175 1.554-.373-3.613 7.652m0 0c-5.156 8.193-5.339 7.837-11.805 14.977m0 0c-9.996 11.191-10.274 10.483-22.043 19.558"/><path stroke="#000" stroke-linecap="round" stroke-width="17.325" d="M177.355 51.316c-18.77 13.42-18.658 12.961-39.367 23.098m0 0c-31.062 13.412-30.491 14.326-62.808 24.91m0 0c-25.97 7.218-25.23 9.138-51.145 16.364m0 0c-18.206 7.696-7.918 2.876-15.043 7.679m0 0c17.264-4.279 6.659-.036 34.688-7.785m0 0c32.117-6.383 32.092-6.458 64.343-12.144m0 0c24.234-4.522 24.25-4.336 48.61-8.051m0 0c22.239-3.921 22.21-3.216 44.562-5.438m0 0c10.463-.526 10.097-.686 20.278 1.031m0 0c3.945.731 2.714.431 4.781 2.946m0 0c.303 3.943 1.089 2.886-.93 7.258m-78.449 74.418c1.262-4.259 1.246-4.264 2.492-8.528m0 0c.482-2.49.696-2.415 1.36-4.84m0 0c1.312-3.531 1.308-3.504 3.011-6.867m0 0c2.091-3.675 1.916-3.762 4.219-7.328m0 0c1.96-3.285 1.925-3.306 3.887-6.59m0 0c1.679-3.313 1.862-3.193 3.691-6.406m0 0c1.313-4.124 1.646-2.53 3.625-4.84m0 0c3.426.168 2.22-.687 5.438 2.035m0 0c2.852 3.117 2.746 2.549 4.078 6.797m0 0c2.31 4.972 1.378 4.14 1.129 8.844m0 0c-2.365 3.989-1.136 3.723-5.762 6.348m0 0c-2.928 1.319-2.48 1.722-5.992 1.812m0 0c-3.353.353-3.274.527-6.684.227m0 0c-5.707-.537-2.776-.106-5.531-.692"/><path stroke="#000" stroke-linecap="round" stroke-width="17.325" d="M155.836 155.574c3.318-.753.198-.175 6.277.031m0 0c3.729 1.671 3.846 1.02 7.332 3.579m0 0c4.258 1.889 4.055 2.146 7.985 4.531m13.355 11.945c3.218-3.569 3.061-3.687 6.121-7.375m0 0c2.204-2.895 2.196-2.878 4.078-5.992m0 0c2.34-4.588 2.659-4.393 4.989-8.988m0 0c2.002-6.117 1.998-3.321 4.304-6.453"/><path stroke="#000" stroke-linecap="round" stroke-width="17.325" d="M210.277 146.852c2.735 2.293 2.003-.293 4.305 5.195m0 0c.783 2.85 1.376 2.543 1.586 5.695m0 0c1.032 3.26.927 3.286 1.875 6.567m0 0c.789 2.588.661 2.593 1.133 5.234m-27.43-2.906c2.61.505 2.608.226 5.215.453m0 0c3.302-.357 3.305-.067 6.605-.692m0 0c3.513-.402 3.517-.356 7.036-.691m0 0c3.523-.162 3.512-.288 7.035-.461"/><path stroke="#000" stroke-linecap="round" stroke-width="17.325" d="M217.637 165.246c3.611-.342 3.613-.308 7.215-.754m14.164 8.485c.671-3.666.679-3.664 1.359-7.329m0 0c.384-3.018.558-2.974 1.133-5.945m0 0c.882-3.276.837-3.272 2.039-6.453m0 0c1.04-3.102 1.109-3.046 2.492-5.992m0 0c.992-4.146 1.153-2.296 2.719-4.379m0 0c2.685 1.313 1.898-.257 4.531 3.398m0 0c1.953 2.879 2.263 2.556 3.688 5.883m0 0c1.545 3.288 1.808 3.132 3.398 6.391m0 0c1.569 5.02 1.548 2.592 3.402 5m0 0c2.19-2.512 2.02-.023 4.305-5.086m0 0c4.371-6.469 4.878-5.938 9.68-11.938m0 0c2.895-2.53 2.611-2.689 6.16-4.379m0 0c2.547-1.888 2.434-1.378 5.238-2.074m0 0c4.052-.519 2.972-.205 6.086 1.293"/><path stroke="#000" stroke-linecap="round" stroke-width="17.325" d="M295.246 141.367c1.305 3.018 2.141 1.907 2.266 6.145m0 0c1.254 4.1 1.254 4.084 2.164 8.277m0 0c.956 4.869 1.055 4.843 1.765 9.762m0 0c.249 3.235.527 3.181.907 6.387"/></svg>
