<svg width="312" height="206" viewBox="0 0 312 206" fill="none" xmlns="http://www.w3.org/2000/svg">
<path d="M58.543 196.488C61.664 194.731 61.375 194.414 64.207 192.34" stroke="black" stroke-width="17.325" stroke-linecap="round"/>
<path d="M64.207 192.34C67.535 189.081 67.56 189.188 70.336 185.402" stroke="black" stroke-width="17.325" stroke-linecap="round"/>
<path d="M70.336 185.402C77.207 176.123 77.32 176.228 83.777 166.633" stroke="black" stroke-width="17.325" stroke-linecap="round"/>
<path d="M83.777 166.633C95.468 148.966 95.832 149.22 107.586 131.598" stroke="black" stroke-width="17.325" stroke-linecap="round"/>
<path d="M107.586 131.598C122.075 109.265 122.775 109.828 138.391 88.355" stroke="black" stroke-width="17.325" stroke-linecap="round"/>
<path d="M138.391 88.355C155.563 66.47 155.444 66.501 174.324 46.07" stroke="black" stroke-width="17.325" stroke-linecap="round"/>
<path d="M174.324 46.07C187.878 32.035 187.489 31.757 202.242 18.93" stroke="black" stroke-width="17.325" stroke-linecap="round"/>
<path d="M202.242 18.93C211.89 9.831 208.124 13.564 214.816 9.129" stroke="black" stroke-width="17.325" stroke-linecap="round"/>
<path d="M214.816 9.129C213.573 13.304 216.37 8.756 211.203 16.781" stroke="black" stroke-width="17.325" stroke-linecap="round"/>
<path d="M211.203 16.781C206.047 24.974 205.864 24.618 199.398 31.758" stroke="black" stroke-width="17.325" stroke-linecap="round"/>
<path d="M199.398 31.758C189.402 42.949 189.124 42.241 177.355 51.316" stroke="black" stroke-width="17.325" stroke-linecap="round"/>
<path d="M177.355 51.316C158.585 64.736 158.697 64.277 137.988 74.414" stroke="black" stroke-width="17.325" stroke-linecap="round"/>
<path d="M137.988 74.414C106.926 87.826 107.497 88.74 75.18 99.324" stroke="black" stroke-width="17.325" stroke-linecap="round"/>
<path d="M75.18 99.324C49.21 106.542 49.95 108.462 24.035 115.688" stroke="black" stroke-width="17.325" stroke-linecap="round"/>
<path d="M24.035 115.688C5.829 123.384 16.117 118.564 8.992 123.367" stroke="black" stroke-width="17.325" stroke-linecap="round"/>
<path d="M8.992 123.367C26.256 119.088 15.651 123.331 43.68 115.582" stroke="black" stroke-width="17.325" stroke-linecap="round"/>
<path d="M43.68 115.582C75.797 109.199 75.772 109.124 108.023 103.438" stroke="black" stroke-width="17.325" stroke-linecap="round"/>
<path d="M108.023 103.438C132.257 98.916 132.273 99.102 156.633 95.387" stroke="black" stroke-width="17.325" stroke-linecap="round"/>
<path d="M156.633 95.387C178.872 91.466 178.843 92.171 201.195 89.949" stroke="black" stroke-width="17.325" stroke-linecap="round"/>
<path d="M201.195 89.949C211.658 89.423 211.292 89.263 221.473 90.98" stroke="black" stroke-width="17.325" stroke-linecap="round"/>
<path d="M221.473 90.98C225.418 91.711 224.187 91.411 226.254 93.926" stroke="black" stroke-width="17.325" stroke-linecap="round"/>
<path d="M226.254 93.926C226.557 97.869 227.343 96.812 225.324 101.184" stroke="black" stroke-width="17.325" stroke-linecap="round"/>
<path d="M146.875 175.602C148.137 171.343 148.121 171.338 149.367 167.074" stroke="black" stroke-width="17.325" stroke-linecap="round"/>
<path d="M149.367 167.074C149.849 164.584 150.063 164.659 150.727 162.234" stroke="black" stroke-width="17.325" stroke-linecap="round"/>
<path d="M150.727 162.234C152.039 158.703 152.035 158.73 153.738 155.367" stroke="black" stroke-width="17.325" stroke-linecap="round"/>
<path d="M153.738 155.367C155.829 151.692 155.654 151.605 157.957 148.039" stroke="black" stroke-width="17.325" stroke-linecap="round"/>
<path d="M157.957 148.039C159.917 144.754 159.882 144.733 161.844 141.449" stroke="black" stroke-width="17.325" stroke-linecap="round"/>
<path d="M161.844 141.449C163.523 138.136 163.706 138.256 165.535 135.043" stroke="black" stroke-width="17.325" stroke-linecap="round"/>
<path d="M165.535 135.043C166.848 130.919 167.181 132.513 169.16 130.203" stroke="black" stroke-width="17.325" stroke-linecap="round"/>
<path d="M169.16 130.203C172.586 130.371 171.38 129.516 174.598 132.238" stroke="black" stroke-width="17.325" stroke-linecap="round"/>
<path d="M174.598 132.238C177.45 135.355 177.344 134.787 178.676 139.035" stroke="black" stroke-width="17.325" stroke-linecap="round"/>
<path d="M178.676 139.035C180.986 144.007 180.054 143.175 179.805 147.879" stroke="black" stroke-width="17.325" stroke-linecap="round"/>
<path d="M179.805 147.879C177.44 151.868 178.669 151.602 174.043 154.227" stroke="black" stroke-width="17.325" stroke-linecap="round"/>
<path d="M174.043 154.227C171.115 155.546 171.563 155.949 168.051 156.039" stroke="black" stroke-width="17.325" stroke-linecap="round"/>
<path d="M168.051 156.039C164.698 156.392 164.777 156.566 161.367 156.266" stroke="black" stroke-width="17.325" stroke-linecap="round"/>
<path d="M161.367 156.266C155.66 155.729 158.591 156.16 155.836 155.574" stroke="black" stroke-width="17.325" stroke-linecap="round"/>
<path d="M155.836 155.574C159.154 154.821 156.034 155.399 162.113 155.605" stroke="black" stroke-width="17.325" stroke-linecap="round"/>
<path d="M162.113 155.605C165.842 157.276 165.959 156.625 169.445 159.184" stroke="black" stroke-width="17.325" stroke-linecap="round"/>
<path d="M169.445 159.184C173.703 161.073 173.5 161.33 177.43 163.715" stroke="black" stroke-width="17.325" stroke-linecap="round"/>
<path d="M190.785 175.66C194.003 172.091 193.846 171.973 196.906 168.285" stroke="black" stroke-width="17.325" stroke-linecap="round"/>
<path d="M196.906 168.285C199.11 165.39 199.102 165.407 200.984 162.293" stroke="black" stroke-width="17.325" stroke-linecap="round"/>
<path d="M200.984 162.293C203.324 157.705 203.643 157.9 205.973 153.305" stroke="black" stroke-width="17.325" stroke-linecap="round"/>
<path d="M205.973 153.305C207.975 147.188 207.971 149.984 210.277 146.852" stroke="black" stroke-width="17.325" stroke-linecap="round"/>
<path d="M210.277 146.852C213.012 149.145 212.28 146.559 214.582 152.047" stroke="black" stroke-width="17.325" stroke-linecap="round"/>
<path d="M214.582 152.047C215.365 154.897 215.958 154.59 216.168 157.742" stroke="black" stroke-width="17.325" stroke-linecap="round"/>
<path d="M216.168 157.742C217.2 161.002 217.095 161.028 218.043 164.309" stroke="black" stroke-width="17.325" stroke-linecap="round"/>
<path d="M218.043 164.309C218.832 166.897 218.704 166.902 219.176 169.543" stroke="black" stroke-width="17.325" stroke-linecap="round"/>
<path d="M191.746 166.637C194.356 167.142 194.354 166.863 196.961 167.09" stroke="black" stroke-width="17.325" stroke-linecap="round"/>
<path d="M196.961 167.09C200.263 166.733 200.266 167.023 203.566 166.398" stroke="black" stroke-width="17.325" stroke-linecap="round"/>
<path d="M203.566 166.398C207.079 165.996 207.083 166.042 210.602 165.707" stroke="black" stroke-width="17.325" stroke-linecap="round"/>
<path d="M210.602 165.707C214.125 165.545 214.114 165.419 217.637 165.246" stroke="black" stroke-width="17.325" stroke-linecap="round"/>
<path d="M217.637 165.246C221.248 164.904 221.25 164.938 224.852 164.492" stroke="black" stroke-width="17.325" stroke-linecap="round"/>
<path d="M239.016 172.977C239.687 169.311 239.695 169.313 240.375 165.648" stroke="black" stroke-width="17.325" stroke-linecap="round"/>
<path d="M240.375 165.648C240.759 162.63 240.933 162.674 241.508 159.703" stroke="black" stroke-width="17.325" stroke-linecap="round"/>
<path d="M241.508 159.703C242.39 156.427 242.345 156.431 243.547 153.25" stroke="black" stroke-width="17.325" stroke-linecap="round"/>
<path d="M243.547 153.25C244.587 150.148 244.656 150.204 246.039 147.258" stroke="black" stroke-width="17.325" stroke-linecap="round"/>
<path d="M246.039 147.258C247.031 143.112 247.192 144.962 248.758 142.879" stroke="black" stroke-width="17.325" stroke-linecap="round"/>
<path d="M248.758 142.879C251.443 144.192 250.656 142.622 253.289 146.277" stroke="black" stroke-width="17.325" stroke-linecap="round"/>
<path d="M253.289 146.277C255.242 149.156 255.552 148.833 256.977 152.16" stroke="black" stroke-width="17.325" stroke-linecap="round"/>
<path d="M256.977 152.16C258.522 155.448 258.785 155.292 260.375 158.551" stroke="black" stroke-width="17.325" stroke-linecap="round"/>
<path d="M260.375 158.551C261.944 163.571 261.923 161.143 263.777 163.551" stroke="black" stroke-width="17.325" stroke-linecap="round"/>
<path d="M263.777 163.551C265.967 161.039 265.797 163.528 268.082 158.465" stroke="black" stroke-width="17.325" stroke-linecap="round"/>
<path d="M268.082 158.465C272.453 151.996 272.96 152.527 277.762 146.527" stroke="black" stroke-width="17.325" stroke-linecap="round"/>
<path d="M277.762 146.527C280.657 143.997 280.373 143.838 283.922 142.148" stroke="black" stroke-width="17.325" stroke-linecap="round"/>
<path d="M283.922 142.148C286.469 140.26 286.356 140.77 289.16 140.074" stroke="black" stroke-width="17.325" stroke-linecap="round"/>
<path d="M289.16 140.074C293.212 139.555 292.132 139.869 295.246 141.367" stroke="black" stroke-width="17.325" stroke-linecap="round"/>
<path d="M295.246 141.367C296.551 144.385 297.387 143.274 297.512 147.512" stroke="black" stroke-width="17.325" stroke-linecap="round"/>
<path d="M297.512 147.512C298.766 151.612 298.766 151.596 299.676 155.789" stroke="black" stroke-width="17.325" stroke-linecap="round"/>
<path d="M299.676 155.789C300.632 160.658 300.731 160.632 301.441 165.551" stroke="black" stroke-width="17.325" stroke-linecap="round"/>
<path d="M301.441 165.551C301.69 168.786 301.968 168.732 302.348 171.938" stroke="black" stroke-width="17.325" stroke-linecap="round"/>
</svg>
