<svg xmlns="http://www.w3.org/2000/svg" width="2609.333" height="2609.333" version="1.0" viewBox="0 0 1957 1957"><path d="M1494.9 422.4c-.2.2-5.8.7-12.4 1-11.8.7-14.6.9-25.5 2.1-3 .3-7.5.8-10 1.1s-5.5.7-6.7.9c-1.2.3-4.1.7-6.5 1s-8.1 1.3-12.8 2.1c-4.7.9-9.6 1.8-11 2.1-1.4.2-5.4 1.1-9 1.9-3.6.9-7.4 1.7-8.5 2-1.1.2-6 1.5-11 2.9-4.9 1.4-9.9 2.7-11 3-1.2.3-7.4 2.3-14 4.5-85 29.1-143 80.5-171.4 151.8-4.8 12.1-10.4 31.2-12.6 43.2-.3 1.4-.7 3.6-1 5-.2 1.4-.7 4.7-1.1 7.5-.3 2.7-.8 5.9-1 6.9-1.8 9.6-2.5 47.6-1.1 63.1 2.9 33.5 10.3 60.5 23.8 87.8 4.2 8.4 14.6 25.6 18.6 30.7 9.9 12.7 28 31.8 37.8 40 11.3 9.4 25.3 19.2 44 30.7 8.7 5.4 44.2 22.5 56.5 27.3 50 19.4 101.3 34.3 174.5 50.5 3.3.8 11 2.5 17 3.9 6.1 1.4 17.1 3.9 24.5 5.6 98.8 22.6 156.5 41.7 195.1 64.6 42.1 25 66.6 57.7 76.8 102.4 1 4.7 2.2 10.7 2.6 13.5.3 2.7.8 6.3 1 8 1.5 10.3 2.1 42.2 1 55.6-.4 6.3-.7 8.5-2 18.9-.8 5.5-2.1 12.9-3.9 20.9-1.1 4.6-6.6 22.2-7.6 24.1-.6 1.2-1.3 2.9-1.5 3.8-.5 2.7-9.3 20.1-13.6 27.2-9.1 14.7-22.5 30.1-36.4 41.7-14.9 12.6-40.1 26.8-61.9 34.8-17.6 6.5-46.9 13.7-64.9 16.1-1.5.2-4.4.5-6.5.8-3.6.5-10.4 1.3-18.7 2.1-36.4 3.6-102.4 1.6-130-3.9-1.1-.2-4.5-.7-7.5-1.1-18.4-2.3-52.6-11.5-75-20-13.3-5.1-33.4-14.6-39-18.5-1.4-.9-3.3-2-4.2-2.3-5.5-2-32.8-22-43.7-32.1-31.5-29.2-54.8-65.2-69.7-107.9-5.9-17-13.4-46-14.9-58.2-.2-1.1-1-7-1.8-13-.9-6.1-1.8-12.6-2-14.6-.3-2-.7-4.1-1-4.5-.3-.5-25.9-.9-56.9-.9h-56.3l.1 3c2 40.8 12.3 88.6 27.1 125.5 15.6 39.1 33.9 69.5 62.3 103.5 4.2 5.1 30.2 30.8 35.9 35.5 2.9 2.5 5.9 5 6.5 5.5 2.1 1.9 12.3 10 14.6 11.5 1.2.8 2.8 2 3.4 2.5.6.6 5.9 4.3 11.7 8.2 48.8 32.7 107 55.7 172.9 68.4 5.8 1.1 11.9 2.2 13.5 2.5 22.7 3.4 26.8 4 35 4.9 2.8.3 7.3.8 10 1.1 26 3 92.4 3.6 116.5 1 1.9-.2 6.9-.7 11.1-1 4.2-.4 8.7-.9 10-1.1s4.7-.6 7.4-1c26.3-3.3 56.7-9.7 76.8-16.2 4.3-1.4 8.4-2.6 9-2.7.7-.2 1.9-.6 2.7-.9s4.9-1.8 9-3.3c33.9-12.3 66.4-30 90.5-49.3 3.8-3.1 8.1-6.5 9.5-7.6 3.7-3 27.1-26.4 30.9-31 4.6-5.4 20.1-26.2 20.1-26.9 0-.3 1.3-2.4 2.9-4.8 14.9-22.2 29.1-57.6 36.4-90.8 2.4-10.8 2.9-13.3 4.2-22.8 1.4-9.6 1.7-12.5 3-26.7.5-5.8.5-40.7 0-48-.4-5.5-1.4-16.7-2.1-23-.8-7.2-4.5-25.8-6.9-35.2-8.2-32-24.1-63.9-43.8-88.3-5.7-7.1-25.8-27.7-32.2-33-31.6-26.2-69.7-47-120.5-66-20.1-7.5-54.6-18.6-67-21.6-.8-.2-8-2.1-16-4.3s-15.6-4.2-17-4.5-7-1.7-12.5-3.1c-11.7-3-44.1-10.6-47-11-1.1-.2-5.8-1.3-10.5-2.4-4.7-1.2-11.6-2.8-15.5-3.5-61.5-12.6-123.5-29.4-158.5-43-21.6-8.5-53.7-26-65.9-36.1-29.3-24.2-45.7-49.7-54-83.5-5.3-22-6.2-53.3-2.2-78 9-54.7 45.3-97.4 102.6-120.2 11.6-4.7 29.6-10.4 38.5-12.3 10.7-2.3 16.1-3.4 19-3.9 1.9-.3 6.2-1 9.5-1.6s8.7-1.3 12-1.6 7.1-.7 8.5-1c6.8-1.2 25.1-1.9 50-1.9 33.7 0 46.7.8 71.5 4.7 7.2 1.1 13.9 2.1 15.1 2.3 1.1.2 7.9 1.7 15 3.5 35.4 8.7 64.5 21.9 89.9 40.8 10.3 7.6 29.7 26.5 37.4 36.5 10.8 14.1 21.9 32.8 28.1 47.7 1.8 4.1 3.8 8.8 4.6 10.5 3.9 8.6 13.6 42.6 15.8 55 2.5 14.9 3.2 18.7 4.1 26l.6 5 56.2-.1c30.9-.1 56.6-.2 57.1-.3 1-.1-.9-20.9-3-33.1-.2-1.4-.7-4.1-1-6-.5-3-2-10.7-4-21-2.8-14-10.1-37.9-16.6-54.5-13.2-33.6-30.3-62.9-52.1-89-8.8-10.5-33.9-34.7-44.7-43.1-17.3-13.4-42.1-29.2-56.5-35.8-2.2-1.1-7.6-3.6-12-5.7-19.3-9.1-42.5-17.1-69-23.9-10.4-2.7-21-5.1-23.5-5.5s-7.4-1.3-11-2-8.7-1.6-11.5-2c-2.7-.3-7.9-1-11.5-1.5-8.2-1.1-13.7-1.8-22.5-2.6-3.8-.3-9.5-.8-12.5-1.1-6.4-.6-72.6-1.4-73.1-.9m-1088 23.4c-1.1 2.4-1.9 4.5-1.9 4.8 0 .2-2 5.4-4.4 11.6S389.8 490.4 382 511c-7.7 20.6-14.5 38.4-15 39.5s-9.5 24.7-20 52.5-19.4 51.4-20 52.5c-.5 1.1-4.3 11.2-8.6 22.5-4.2 11.3-8.3 21.9-9 23.5-.8 1.7-1.6 4-1.9 5-.2 1.1-5.6 15.5-12 32s-11.8 30.4-11.9 31c-.4 1.4-1.6 4.6-2.6 7-.5 1.1-12 31.2-25.5 67-13.5 35.7-25 65.9-25.5 67-.4 1.1-2.1 5.4-3.6 9.5-1.4 4.1-3.3 8.9-4 10.7-.8 1.7-1.4 3.4-1.4 3.8s-.6 2.1-1.4 3.8c-.8 1.8-4.2 10.6-7.6 19.7s-7.7 20.5-9.7 25.5c-5.6 14.6-7.9 20.5-11.1 29-5.7 15.1-15.2 40.1-36.7 96.5-11.9 31.1-21.8 57.2-22 58s-2.3 6.2-4.5 12c-2.3 5.8-5.3 13.6-6.6 17.5-1.4 3.8-3.2 8.3-3.9 10-1.2 2.5-15.1 39.1-24 63-4.4 11.7-40.6 107-41.6 109.4-.5 1.3-3.7 9.6-7 18.5-3.3 8.8-6.4 17-6.9 18.1-1 2.2-7.7 19.6-12 31.5-1.6 4.1-7.8 20.5-13.9 36.5C6 1499.4 1 1512.8 1 1513.2c0 .5 65 .8 144.4.8h144.5l.7-2.3c.4-1.2.9-2.7 1-3.2.1-.6 1.2-3.9 2.4-7.5s2.3-7.2 2.5-8 1.5-5.1 2.9-9.5 6.4-20.6 11.1-36 9.7-31.4 11-35.5c4.4-14.1 8.9-28.5 9.1-29.7.1-.7 1.6-5.4 3.2-10.5 1.7-5.1 4.6-14.5 6.6-20.8 4.8-15.6 13.7-44.3 14-45.5.1-.6 1.2-4.2 2.4-8l2.1-7h183.5c100.9 0 183.6.2 183.9.5.5.5 5.6 16.3 6.2 19 .2.8 1.4 5.1 2.8 9.5s4.6 14.5 7.1 22.5 6.4 20.6 8.7 28 4.4 13.9 4.5 14.5c.1.5 3.9 12.9 8.4 27.5s9 29.2 10 32.5 5.7 18.6 10.5 34 9.2 29.7 9.7 31.8l1 3.7H1091l-2.4-6.3c-1.3-3.4-6.6-17-11.6-30.2-5.1-13.2-9.9-25.6-10.6-27.5s-4.4-11.6-8.2-21.5-10.1-26.6-14.1-37c-4-10.5-7.7-20.1-8.3-21.5s-1.2-3-1.3-3.5c-.2-.6-2.4-6.4-5-13s-6-15.4-7.5-19.5c-4.1-10.6-18.1-47.3-22.1-57.5-1-2.8-3.9-10.4-6.4-17s-5-12.9-5.6-14c-.6-1.2-1.1-2.7-1.3-3.5-.3-1.7-1.2-4.1-3.1-8.5-1.3-3.1-8-20.7-18.7-49-3.3-8.8-6.8-17.8-7.8-20s-2.4-6-3.3-8.5c-.8-2.5-3.5-9.7-6-16s-7-18-10.1-26c-3-8-6.1-15.9-6.7-17.5-.7-1.7-1.3-3.5-1.4-4-.2-.6-2.3-6.2-4.8-12.5s-7.1-18.3-10.2-26.5c-3.1-8.3-10.2-26.7-15.7-41s-13.5-35.5-18-47c-4.4-11.6-8.6-22.4-9.4-24.2-.8-1.7-1.4-3.4-1.4-3.7s-1.5-4.5-3.4-9.4c-1.9-4.8-8-20.6-13.6-35.2-5.5-14.6-11-28.7-12.2-31.5-1.1-2.7-2.1-5.4-2.2-6-.2-.5-1-2.7-1.9-4.9-.9-2.1-1.7-4.1-1.7-4.5 0-.3-1.8-5.1-4-10.6-6.3-16-13.2-33.9-13.4-35-.2-.6-.8-2.1-1.4-3.5s-4.7-12.2-9.2-24-9.2-24.2-10.5-27.5-3.7-9.6-5.4-14-5-13.2-7.5-19.5c-2.4-6.3-8.5-22.3-13.5-35.5s-9.6-25.1-10.2-26.5-1.9-4.8-2.9-7.5c-1-2.8-2.7-7.3-3.8-10-1.1-2.8-5.2-13.6-9.2-24-16.2-42.3-21.1-55.1-30.5-79.5-5.3-14-12.8-33.6-16.7-43.5-3.8-9.9-9-23.6-11.5-30.5-2.6-6.9-4.8-12.7-5.1-13-.2-.3-61.4-.5-135.9-.5H408.7zM548 699.2c1.7 5.7 3.5 11.4 4 12.8s4.4 13.7 8.5 27.5c12.5 40.9 18.5 60.6 20.5 67 2.1 6.6 10.3 33.3 21.5 70 4 13.2 10.3 33.7 14 45.5 3.6 11.8 6.8 22.2 7 23s1.6 5.3 3.1 10 2.8 8.9 3 9.5c.1.5 1.2 4.1 2.4 8 1.2 3.8 2.6 8.3 3 10 .4 1.6 2.8 9.5 5.3 17.5s6.1 19.7 8.1 26c1.9 6.3 6.6 21.8 10.5 34.4s7.1 23.3 7.1 23.8c0 .4-55.1.8-122.5.8-76.6 0-122.5-.4-122.5-.9 0-.6 1.1-4.5 2.4-8.8 1.4-4.3 4.1-13 6-19.3s4.9-16 6.6-21.5 3.3-10.7 3.5-11.5 3.6-11.9 7.5-24.5c7.2-23 11.7-37.7 17-55.5 1.6-5.2 5.1-16.7 7.8-25.5 2.8-8.8 6.6-21.2 8.5-27.5 2-6.3 6.2-20.3 9.5-31s8.5-27.6 11.5-37.5C544.5 680.6 541.8 689 543.5 689c1 0 2.5 3.5 4.5 10.2"/></svg>
