<?xml version="1.0" standalone="no"?>
<!DOCTYPE svg PUBLIC "-//W3C//DTD SVG 20010904//EN"
 "http://www.w3.org/TR/2001/REC-SVG-20010904/DTD/svg10.dtd">
<svg version="1.0" xmlns="http://www.w3.org/2000/svg"
 width="1957.000000pt" height="1957.000000pt" viewBox="0 0 1957.000000 1957.000000"
 preserveAspectRatio="xMidYMid meet">
<metadata>
Created by potrace 1.14, written by Peter Selinger 2001-2017
</metadata>
<g transform="translate(0.000000,1957.000000) scale(0.100000,-0.100000)"
fill="#000000" stroke="none">
<path d="M14949 15346 c-2 -2 -58 -7 -124 -10 -118 -7 -146 -9 -255 -21 -30
-3 -75 -8 -100 -11 -25 -3 -55 -7 -67 -9 -12 -3 -41 -7 -65 -10 -24 -3 -81
-13 -128 -21 -47 -9 -96 -18 -110 -21 -14 -2 -54 -11 -90 -19 -36 -9 -74 -17
-85 -20 -11 -2 -60 -15 -110 -29 -49 -14 -99 -27 -110 -30 -12 -3 -74 -23
-140 -45 -850 -291 -1430 -805 -1714 -1518 -48 -121 -104 -312 -126 -432 -3
-14 -7 -36 -10 -50 -2 -14 -7 -47 -11 -75 -3 -27 -8 -59 -10 -69 -18 -96 -25
-476 -11 -631 29 -335 103 -605 238 -878 42 -84 146 -256 186 -307 99 -127
280 -318 378 -400 113 -94 253 -192 440 -307 87 -54 442 -225 565 -273 500
-194 1013 -343 1745 -505 33 -8 110 -25 170 -39 61 -14 171 -39 245 -56 988
-226 1565 -417 1951 -646 421 -250 666 -577 768 -1024 10 -47 22 -107 26 -135
3 -27 8 -63 10 -80 15 -103 21 -422 10 -556 -4 -63 -7 -85 -20 -189 -8 -55
-21 -129 -39 -209 -11 -46 -66 -222 -76 -241 -6 -12 -13 -29 -15 -38 -5 -27
-93 -201 -136 -272 -91 -147 -225 -301 -364 -417 -149 -126 -401 -268 -619
-348 -176 -65 -469 -137 -649 -161 -15 -2 -44 -5 -65 -8 -36 -5 -104 -13 -187
-21 -364 -36 -1024 -16 -1300 39 -11 2 -45 7 -75 11 -184 23 -526 115 -750
200 -133 51 -334 146 -390 185 -14 9 -33 20 -42 23 -55 20 -328 220 -437 321
-315 292 -548 652 -697 1079 -59 170 -134 460 -149 582 -2 11 -10 70 -18 130
-9 61 -18 126 -20 146 -3 20 -7 41 -10 45 -3 5 -259 9 -569 9 l-563 0 1 -30
c20 -408 123 -886 271 -1255 156 -391 339 -695 623 -1035 42 -51 302 -308 359
-355 29 -25 59 -50 65 -55 21 -19 123 -100 146 -115 12 -8 28 -20 34 -25 6 -6
59 -43 117 -82 488 -327 1070 -557 1729 -684 58 -11 119 -22 135 -25 227 -34
268 -40 350 -49 28 -3 73 -8 100 -11 260 -30 924 -36 1165 -10 19 2 69 7 111
10 42 4 87 9 100 11 13 2 47 6 74 10 263 33 567 97 768 162 43 14 84 26 90 27
7 2 19 6 27 9 8 3 49 18 90 33 339 123 664 300 905 493 38 31 81 65 95 76 37
30 271 264 309 310 46 54 201 262 201 269 0 3 13 24 29 48 149 222 291 576
364 908 24 108 29 133 42 228 14 96 17 125 30 267 5 58 5 407 0 480 -4 55 -14
167 -21 230 -8 72 -45 258 -69 352 -82 320 -241 639 -438 883 -57 71 -258 277
-322 330 -316 262 -697 470 -1205 660 -201 75 -546 186 -670 216 -8 2 -80 21
-160 43 -80 22 -156 42 -170 45 -14 3 -70 17 -125 31 -117 30 -441 106 -470
110 -11 2 -58 13 -105 24 -47 12 -116 28 -155 35 -615 126 -1235 294 -1585
430 -216 85 -537 260 -659 361 -293 242 -457 497 -540 835 -53 220 -62 533
-22 780 90 547 453 974 1026 1202 116 47 296 104 385 123 107 23 161 34 190
39 19 3 62 10 95 16 33 6 87 13 120 16 33 3 71 7 85 10 68 12 251 19 500 19
337 0 467 -8 715 -47 72 -11 139 -21 151 -23 11 -2 79 -17 150 -35 354 -87
645 -219 899 -408 103 -76 297 -265 374 -365 108 -141 219 -328 281 -477 18
-41 38 -88 46 -105 39 -86 136 -426 158 -550 25 -149 32 -187 41 -260 l6 -50
562 1 c309 1 566 2 571 3 10 1 -9 209 -30 331 -2 14 -7 41 -10 60 -5 30 -20
107 -40 210 -28 140 -101 379 -166 545 -132 336 -303 629 -521 890 -88 105
-339 347 -447 431 -173 134 -421 292 -565 358 -22 11 -76 36 -120 57 -193 91
-425 171 -690 239 -104 27 -210 51 -235 55 -25 4 -74 13 -110 20 -36 7 -87 16
-115 20 -27 3 -79 10 -115 15 -82 11 -137 18 -225 26 -38 3 -95 8 -125 11 -64
6 -726 14 -731 9z"/>
<path d="M4069 15112 c-11 -24 -19 -45 -19 -48 0 -2 -20 -54 -44 -116 -24 -62
-108 -282 -186 -488 -77 -206 -145 -384 -150 -395 -5 -11 -95 -247 -200 -525
-105 -278 -194 -514 -200 -525 -5 -11 -43 -112 -86 -225 -42 -113 -83 -219
-90 -235 -8 -17 -16 -40 -19 -50 -2 -11 -56 -155 -120 -320 -64 -165 -118
-304 -119 -310 -4 -14 -16 -46 -26 -70 -5 -11 -120 -312 -255 -670 -135 -357
-250 -659 -255 -670 -4 -11 -21 -54 -36 -95 -14 -41 -33 -89 -40 -107 -8 -17
-14 -34 -14 -38 0 -4 -6 -21 -14 -38 -8 -18 -42 -106 -76 -197 -34 -91 -77
-205 -97 -255 -56 -146 -79 -205 -111 -290 -57 -151 -152 -401 -367 -965 -119
-311 -218 -572 -220 -580 -2 -8 -23 -62 -45 -120 -23 -58 -53 -136 -66 -175
-14 -38 -32 -83 -39 -100 -12 -25 -151 -391 -240 -630 -44 -117 -406 -1070
-416 -1094 -5 -13 -37 -96 -70 -185 -33 -88 -64 -170 -69 -181 -10 -22 -77
-196 -120 -315 -16 -41 -78 -205 -139 -365 -61 -159 -111 -293 -111 -297 0 -5
650 -8 1444 -8 l1445 0 7 23 c4 12 9 27 10 32 1 6 12 39 24 75 12 36 23 72 25
80 2 8 15 51 29 95 14 44 64 206 111 360 47 154 97 314 110 355 44 141 89 285
91 297 1 7 16 54 32 105 17 51 46 145 66 208 48 156 137 443 140 455 1 6 12
42 24 80 l21 70 1835 0 c1009 0 1836 -2 1839 -5 5 -5 56 -163 62 -190 2 -8 14
-51 28 -95 14 -44 46 -145 71 -225 25 -80 64 -206 87 -280 23 -74 44 -139 45
-145 1 -5 39 -129 84 -275 45 -146 90 -292 100 -325 10 -33 57 -186 105 -340
48 -154 92 -297 97 -318 l10 -37 1479 0 1479 0 -24 63 c-13 34 -66 170 -116
302 -51 132 -99 256 -106 275 -7 19 -44 116 -82 215 -38 99 -101 266 -141 370
-40 105 -77 201 -83 215 -6 14 -12 30 -13 35 -2 6 -24 64 -50 130 -26 66 -60
154 -75 195 -41 106 -181 473 -221 575 -10 28 -39 104 -64 170 -25 66 -50 129
-56 140 -6 12 -11 27 -13 35 -3 17 -12 41 -31 85 -13 31 -80 207 -187 490 -33
88 -68 178 -78 200 -10 22 -24 60 -33 85 -8 25 -35 97 -60 160 -25 63 -70 180
-101 260 -30 80 -61 159 -67 175 -7 17 -13 35 -14 40 -2 6 -23 62 -48 125 -25
63 -71 183 -102 265 -31 83 -102 267 -157 410 -55 143 -135 355 -180 470 -44
116 -86 224 -94 242 -8 17 -14 34 -14 37 0 3 -15 45 -34 94 -19 48 -80 206
-136 352 -55 146 -110 287 -122 315 -11 27 -21 54 -22 60 -2 5 -10 27 -19 49
-9 21 -17 41 -17 45 0 3 -18 51 -40 106 -63 160 -132 339 -134 350 -2 6 -8 21
-14 35 -6 14 -47 122 -92 240 -45 118 -92 242 -105 275 -13 33 -37 96 -54 140
-17 44 -50 132 -75 195 -24 63 -85 223 -135 355 -50 132 -96 251 -102 265 -6
14 -19 48 -29 75 -10 28 -27 73 -38 100 -11 28 -52 136 -92 240 -162 423 -211
551 -305 795 -53 140 -128 336 -167 435 -38 99 -90 236 -115 305 -26 69 -48
127 -51 130 -2 3 -614 5 -1359 5 l-1356 0 -18 -43z m1411 -2534 c17 -57 35
-114 40 -128 5 -14 44 -137 85 -275 125 -409 185 -606 205 -670 21 -66 103
-333 215 -700 40 -132 103 -337 140 -455 36 -118 68 -222 70 -230 2 -8 16 -53
31 -100 15 -47 28 -89 30 -95 1 -5 12 -41 24 -80 12 -38 26 -83 30 -100 4 -16
28 -95 53 -175 25 -80 61 -197 81 -260 19 -63 66 -218 105 -344 39 -126 71
-233 71 -238 0 -4 -551 -8 -1225 -8 -766 0 -1225 4 -1225 9 0 6 11 45 24 88
14 43 41 130 60 193 19 63 49 160 66 215 17 55 33 107 35 115 2 8 36 119 75
245 72 230 117 377 170 555 16 52 51 167 78 255 28 88 66 212 85 275 20 63 62
203 95 310 33 107 85 276 115 375 432 1409 405 1325 422 1325 10 0 25 -35 45
-102z"/>
</g>
</svg>
